<svg width="418" height="438" viewBox="0 0 418 438" fill="none" xmlns="http://www.w3.org/2000/svg">
<path d="M418 267.368L303.756 381.57H219.08L163.975 438H104.836V381.57H0V75.2393L29.5693 0H418V267.368ZM84.2139 313.049H153.222V369.479L209.672 313.049H314.508L367.938 259.638L356.851 269.195L294.034 196.312L236.531 268.59L219.285 290.268L204.136 267.075L148.751 182.281L84.2139 313.049ZM65.8584 259.859L128.394 133.148L143.905 101.718L163.073 131.062L222.476 222.008L277.767 152.511L292.802 133.613L308.567 151.905L379.022 233.651V38.9629H65.8584V259.859Z" fill="#6441A4"/>
</svg>
